<svg id="Layer_1" data-name="Layer 1" xmlns="http://www.w3.org/2000/svg" viewBox="0 0 136.68 142.64"><defs><style>.cls-1{fill:#fff;}</style></defs><title>cesium cup logo</title><path class="cls-1" d="M92.91,104.51c-.56,3.54-1.11,7-1.67,10.44-.38,2.38-.81,4.76-1.14,7.15a2.25,2.25,0,0,1-1.85,2.17C83,125.49,77.79,126.7,72.57,128c-.95.24-1.25-.19-1.59-.89-2.19-4.42-4.42-8.82-6.58-13.26a1.79,1.79,0,0,1,.12-1.57c4.18-4.92,8.42-9.79,12.67-14.7Z"/><path class="cls-1" d="M37.52,99.31c4.61,1.38,9,2.69,13.4,4,2.51.76,5,1.57,7.53,2.31a1.71,1.71,0,0,1,1.43,1.82c.3,5.75.68,11.49,1,17.43-1.24.35-2.48.74-3.74,1-3.2.74-6.4,1.47-9.63,2.1a2,2,0,0,1-1.61-.57c-3.76-4.85-7.46-9.75-11.16-14.65a1.69,1.69,0,0,1-.38-1.18C35.4,107.54,36.46,103.47,37.52,99.31Z"/><path class="cls-1" d="M23.67,24.11c-.8,2.8-1.54,5.41-2.3,8-1,3.31-1.94,6.62-2.95,9.91-.18.56-.18.71-.35,1.39a5.12,5.12,0,0,0-.11.69L4.18,52.93C4.41,46.05,15.28,28.82,23.67,24.11Z"/><path class="cls-1" d="M29.91,112.4c0-.33-.31-.68-.52-1-3.07-4.34-6.18-8.65-9.21-13a1.54,1.54,0,0,0-1.89-.75c-3,.69-6,1.28-9,2-1.09.24-2.15.59-3.23.89,2.47,7.85,18.83,23.19,23.85,23.75C29.93,120.27,30,116.33,29.91,112.4Z"/><path class="cls-1" d="M89.89,39.4c-16-.55-32-1.08-48-1.68a2.21,2.21,0,0,0-2.25,1.39c-3.23,5.68-6.47,11.34-9.67,17A3.25,3.25,0,0,0,29.6,58c.81,6.42,1.67,12.83,2.5,19.25.79,6,1.57,12.06,2.36,18.17a3.73,3.73,0,0,0,.68.1q26.37-1.4,52.76-2.78c1.34-.07,1.73-.71,1.82-2Q91.29,69.34,93,47.93c.2-2.72.35-5.44.53-8.3C92.16,39.55,91,39.44,89.89,39.4ZM81.07,73.68C78.42,77.17,75.68,80.6,73,84.07c-.51.66-.9,1.4-1.21,1.88L43.33,87.67c.13-2.86.25-5.64.38-8.41q.52-11.6,1-23.18a1.77,1.77,0,0,0,0-.23l0-1.45,35.94-7.65a5.09,5.09,0,0,1,.21.88c.34,7.95.7,15.9,1,23.85A3.79,3.79,0,0,1,81.07,73.68Z"/><path class="cls-1" d="M135.66,63.19a63.6,63.6,0,0,0-6.74-22.92c-5.36-10.47-12.6-19.54-22.35-26.17C85.22-.43,62.45-3.89,38.33,6.69a96.54,96.54,0,0,0-14.39,7.63A63.57,63.57,0,0,0,4.86,34.73c-1.51,2.49-2.71,5.18-4,7.78-.22.44-.37.92-.55,1.38C15.86,14.52,46.44,7,62,8.72L56.51,15c3.27,2.13,6.27,4.15,9.34,6.06a5.22,5.22,0,0,0,2.59.71c2.85,0,5.7-.16,8.55-.27s5.71-.18,8.56-.39c.64,0,1.72-.54,1.77-.94a37.48,37.48,0,0,0,.09-4.86v-.63c0-1.41.44-1.47,1.81-.89a37.36,37.36,0,0,1,4,2.2c12.18,7.28,21.53,17.12,27.4,30.13.16.41.35.81.48,1.23.66,2.15.17,2.57-2.08,2.33a31.15,31.15,0,0,0-4.92.08c-1.26.05-1.8.68-1.66,2s0,2.64.09,4-.26,3.1.37,4.22c2.09,3.7,4.51,7.22,6.87,10.9a.27.27,0,0,0,.4.06L122.33,69l2.39-2c2.11,11.69-.24,22.46-4.34,33.2a19.37,19.37,0,0,0-2.21-1.92,1.59,1.59,0,0,0-1.41,0c-.62.35-1,1.09-1.63,1.44-3.69,2.07-7.37,4.14-11.13,6.08-2.43,1.26-5,2.29-7.46,3.46A1.18,1.18,0,0,0,96,110c-.92,4.5-1.81,9-2.75,13.71l7.8,1.93a14.53,14.53,0,0,1-2.44,2.71A79.06,79.06,0,0,1,78,137.9a71.1,71.1,0,0,1-25.73,2.42l-2.06-.16a52.28,52.28,0,0,0,7.38,1.59c16.78,1.83,33.09-1.76,46.55-11.05a71.89,71.89,0,0,0,19.56-20.52c3.12-5,6.41-9.92,8.46-15.43C135.39,86,136.59,72.59,135.66,63.19Z"/></svg>